<svg viewBox="-16 -32 880 192" width="880" height="192" xmlns="http://www.w3.org/2000/svg"><style>@keyframes c0{3.36%{fill:var(--c1)}3.38%,to{fill:var(--ce)}}@keyframes c1{64.78%{fill:var(--c2)}64.8%,to{fill:var(--ce)}}@keyframes c2{58.79%{fill:var(--c2)}58.81%,to{fill:var(--ce)}}@keyframes c3{58.42%{fill:var(--c2)}58.44%,to{fill:var(--ce)}}@keyframes c4{60.66%{fill:var(--c2)}60.68%,to{fill:var(--ce)}}@keyframes c5{9.35%{fill:var(--c1)}9.37%,to{fill:var(--ce)}}@keyframes c6{84.63%{fill:var(--c4)}84.65%,to{fill:var(--ce)}}@keyframes c7{37.82%{fill:var(--c2)}37.84%,to{fill:var(--ce)}}@keyframes c8{77.52%{fill:var(--c3)}77.54%,to{fill:var(--ce)}}@keyframes c9{35.2%{fill:var(--c1)}35.22%,to{fill:var(--ce)}}@keyframes ca{76.39%{fill:var(--c3)}76.41%,to{fill:var(--ce)}}@keyframes cb{18.34%{fill:var(--c1)}18.36%,to{fill:var(--ce)}}@keyframes cc{17.59%{fill:var(--c1)}17.61%,to{fill:var(--ce)}}@keyframes cd{32.95%{fill:var(--c1)}32.97%,to{fill:var(--ce)}}@keyframes ce{32.57%{fill:var(--c1)}32.59%,to{fill:var(--ce)}}@keyframes cf{78.64%{fill:var(--c3)}78.66%,to{fill:var(--ce)}}@keyframes cg{19.84%{fill:var(--c1)}19.86%,to{fill:var(--ce)}}@keyframes ch{44.18%{fill:var(--c2)}44.2%,to{fill:var(--ce)}}@keyframes ci{79.77%{fill:var(--c3)}79.79%,to{fill:var(--ce)}}@keyframes cj{20.59%{fill:var(--c1)}20.61%,to{fill:var(--ce)}}@keyframes ck{42.69%{fill:var(--c2)}42.71%,to{fill:var(--ce)}}@keyframes cl{22.46%{fill:var(--c1)}22.48%,to{fill:var(--ce)}}@keyframes cm{22.84%{fill:var(--c1)}22.86%,to{fill:var(--ce)}}@keyframes cn{81.64%{fill:var(--c4)}81.66%,to{fill:var(--ce)}}@keyframes co{40.81%{fill:var(--c2)}40.83%,to{fill:var(--ce)}}@keyframes cp{41.19%{fill:var(--c2)}41.21%,to{fill:var(--ce)}}@keyframes cq{27.71%{fill:var(--c1)}27.73%,to{fill:var(--ce)}}@keyframes cr{46.81%{fill:var(--c2)}46.83%,to{fill:var(--ce)}}@keyframes cs{24.71%{fill:var(--c1)}24.73%,to{fill:var(--ce)}}@keyframes ct{25.08%{fill:var(--c1)}25.1%,to{fill:var(--ce)}}@keyframes u0{3.36%{transform:scale(0,1)}3.38%,9.35%{transform:scale(.07,1)}17.59%,9.37%{transform:scale(.14,1)}17.61%,18.34%{transform:scale(.21,1)}18.36%,19.84%{transform:scale(.29,1)}19.86%,20.59%{transform:scale(.36,1)}20.61%,22.46%{transform:scale(.43,1)}22.48%,22.84%{transform:scale(.5,1)}22.86%,24.71%{transform:scale(.57,1)}24.73%,25.08%{transform:scale(.64,1)}25.1%,27.71%{transform:scale(.71,1)}27.73%,32.57%{transform:scale(.79,1)}32.59%,32.95%{transform:scale(.86,1)}32.97%,35.2%{transform:scale(.93,1)}35.22%,to{transform:scale(1,1)}}@keyframes u1{37.82%{transform:scale(0,1)}37.84%,40.81%{transform:scale(.1,1)}40.83%,41.19%{transform:scale(.2,1)}41.21%,42.69%{transform:scale(.3,1)}42.71%,44.18%{transform:scale(.4,1)}44.2%,46.81%{transform:scale(.5,1)}46.83%,58.42%{transform:scale(.6,1)}58.44%,58.79%{transform:scale(.7,1)}58.81%,60.66%{transform:scale(.8,1)}60.68%,64.78%{transform:scale(.9,1)}64.8%,to{transform:scale(1,1)}}@keyframes u2{76.39%{transform:scale(0,1)}76.41%,77.52%{transform:scale(.25,1)}77.54%,78.64%{transform:scale(.5,1)}78.66%,79.77%{transform:scale(.75,1)}79.79%,to{transform:scale(1,1)}}@keyframes u3{81.64%{transform:scale(0,1)}81.66%,84.63%{transform:scale(.5,1)}84.65%,to{transform:scale(1,1)}}@keyframes s0{0%,99.63%{transform:translate(0,-16px)}.37%{transform:translate(0,0)}1.12%{transform:translate(32px,0)}3.37%{transform:translate(32px,96px)}8.61%{transform:translate(256px,96px)}9.36%{transform:translate(256px,64px)}16.1%{transform:translate(544px,64px)}16.85%{transform:translate(544px,96px)}17.6%{transform:translate(576px,96px)}18.35%{transform:translate(576px,64px)}19.48%{transform:translate(624px,64px)}19.85%{transform:translate(624px,80px)}20.6%{transform:translate(656px,80px)}21.72%{transform:translate(656px,32px)}22.47%{transform:translate(688px,32px)}22.85%{transform:translate(688px,48px)}23.97%{transform:translate(736px,48px)}24.72%{transform:translate(736px,16px)}25.09%{transform:translate(752px,16px)}25.47%{transform:translate(752px,32px)}26.22%{transform:translate(720px,32px)}27.72%{transform:translate(720px,96px)}28.09%{transform:translate(704px,96px)}29.59%{transform:translate(704px,32px)}32.21%{transform:translate(592px,32px)}32.96%,50.19%{transform:translate(592px,0)}33.33%,78.28%{transform:translate(608px,0)}33.71%{transform:translate(608px,-16px)}34.08%{transform:translate(592px,-16px)}34.83%,50.56%{transform:translate(592px,16px)}35.96%{transform:translate(544px,16px)}37.45%{transform:translate(544px,80px)}40.82%{transform:translate(688px,80px)}41.2%{transform:translate(688px,96px)}41.57%{transform:translate(672px,96px)}43.82%{transform:translate(672px,0)}44.19%{transform:translate(656px,0)}44.57%{transform:translate(656px,-16px)}46.44%{transform:translate(736px,-16px)}46.82%{transform:translate(736px,0)}58.43%,59.93%{transform:translate(256px,16px)}58.8%{transform:translate(256px,0)}59.18%{transform:translate(272px,0)}59.55%{transform:translate(272px,16px)}60.67%{transform:translate(256px,48px)}61.05%{transform:translate(240px,48px)}61.42%{transform:translate(240px,32px)}64.79%{transform:translate(96px,32px)}65.17%{transform:translate(96px,48px)}76.4%{transform:translate(576px,48px)}77.53%{transform:translate(576px,0)}78.65%{transform:translate(608px,16px)}80.52%{transform:translate(688px,16px)}81.65%{transform:translate(688px,64px)}93.26%{transform:translate(192px,64px)}93.63%{transform:translate(192px,48px)}94.76%{transform:translate(144px,48px)}95.51%{transform:translate(144px,16px)}95.88%{transform:translate(128px,16px)}96.25%{transform:translate(128px,0)}97.75%{transform:translate(64px,0)}98.13%{transform:translate(64px,-16px)}}@keyframes s1{0%,99.63%{transform:translate(16px,-16px)}.37%{transform:translate(0,-16px)}.75%{transform:translate(0,0)}1.5%{transform:translate(32px,0)}3.75%{transform:translate(32px,96px)}8.99%{transform:translate(256px,96px)}9.74%{transform:translate(256px,64px)}16.48%{transform:translate(544px,64px)}17.23%{transform:translate(544px,96px)}17.98%{transform:translate(576px,96px)}18.73%{transform:translate(576px,64px)}19.85%{transform:translate(624px,64px)}20.22%{transform:translate(624px,80px)}20.97%{transform:translate(656px,80px)}22.1%{transform:translate(656px,32px)}22.85%{transform:translate(688px,32px)}23.22%{transform:translate(688px,48px)}24.34%{transform:translate(736px,48px)}25.09%{transform:translate(736px,16px)}25.47%{transform:translate(752px,16px)}25.84%{transform:translate(752px,32px)}26.59%{transform:translate(720px,32px)}28.09%{transform:translate(720px,96px)}28.46%{transform:translate(704px,96px)}29.96%{transform:translate(704px,32px)}32.58%{transform:translate(592px,32px)}33.33%,50.56%{transform:translate(592px,0)}33.71%,78.65%{transform:translate(608px,0)}34.08%{transform:translate(608px,-16px)}34.46%{transform:translate(592px,-16px)}35.21%,50.94%{transform:translate(592px,16px)}36.33%{transform:translate(544px,16px)}37.83%{transform:translate(544px,80px)}41.2%{transform:translate(688px,80px)}41.57%{transform:translate(688px,96px)}41.95%{transform:translate(672px,96px)}44.19%{transform:translate(672px,0)}44.57%{transform:translate(656px,0)}44.94%{transform:translate(656px,-16px)}46.82%{transform:translate(736px,-16px)}47.19%{transform:translate(736px,0)}58.8%,60.3%{transform:translate(256px,16px)}59.18%{transform:translate(256px,0)}59.55%{transform:translate(272px,0)}59.93%{transform:translate(272px,16px)}61.05%{transform:translate(256px,48px)}61.42%{transform:translate(240px,48px)}61.8%{transform:translate(240px,32px)}65.17%{transform:translate(96px,32px)}65.54%{transform:translate(96px,48px)}76.78%{transform:translate(576px,48px)}77.9%{transform:translate(576px,0)}79.03%{transform:translate(608px,16px)}80.9%{transform:translate(688px,16px)}82.02%{transform:translate(688px,64px)}93.63%{transform:translate(192px,64px)}94.01%{transform:translate(192px,48px)}95.13%{transform:translate(144px,48px)}95.88%{transform:translate(144px,16px)}96.25%{transform:translate(128px,16px)}96.63%{transform:translate(128px,0)}98.13%{transform:translate(64px,0)}98.5%{transform:translate(64px,-16px)}}@keyframes s2{0%,99.63%{transform:translate(32px,-16px)}.75%{transform:translate(0,-16px)}1.12%{transform:translate(0,0)}1.87%{transform:translate(32px,0)}4.12%{transform:translate(32px,96px)}9.36%{transform:translate(256px,96px)}10.11%{transform:translate(256px,64px)}16.85%{transform:translate(544px,64px)}17.6%{transform:translate(544px,96px)}18.35%{transform:translate(576px,96px)}19.1%{transform:translate(576px,64px)}20.22%{transform:translate(624px,64px)}20.6%{transform:translate(624px,80px)}21.35%{transform:translate(656px,80px)}22.47%{transform:translate(656px,32px)}23.22%{transform:translate(688px,32px)}23.6%{transform:translate(688px,48px)}24.72%{transform:translate(736px,48px)}25.47%{transform:translate(736px,16px)}25.84%{transform:translate(752px,16px)}26.22%{transform:translate(752px,32px)}26.97%{transform:translate(720px,32px)}28.46%{transform:translate(720px,96px)}28.84%{transform:translate(704px,96px)}30.34%{transform:translate(704px,32px)}32.96%{transform:translate(592px,32px)}33.71%,50.94%{transform:translate(592px,0)}34.08%,79.03%{transform:translate(608px,0)}34.46%{transform:translate(608px,-16px)}34.83%{transform:translate(592px,-16px)}35.58%,51.31%{transform:translate(592px,16px)}36.7%{transform:translate(544px,16px)}38.2%{transform:translate(544px,80px)}41.57%{transform:translate(688px,80px)}41.95%{transform:translate(688px,96px)}42.32%{transform:translate(672px,96px)}44.57%{transform:translate(672px,0)}44.94%{transform:translate(656px,0)}45.32%{transform:translate(656px,-16px)}47.19%{transform:translate(736px,-16px)}47.57%{transform:translate(736px,0)}59.18%,60.67%{transform:translate(256px,16px)}59.55%{transform:translate(256px,0)}59.93%{transform:translate(272px,0)}60.3%{transform:translate(272px,16px)}61.42%{transform:translate(256px,48px)}61.8%{transform:translate(240px,48px)}62.17%{transform:translate(240px,32px)}65.54%{transform:translate(96px,32px)}65.92%{transform:translate(96px,48px)}77.15%{transform:translate(576px,48px)}78.28%{transform:translate(576px,0)}79.4%{transform:translate(608px,16px)}81.27%{transform:translate(688px,16px)}82.4%{transform:translate(688px,64px)}94.01%{transform:translate(192px,64px)}94.38%{transform:translate(192px,48px)}95.51%{transform:translate(144px,48px)}96.25%{transform:translate(144px,16px)}96.63%{transform:translate(128px,16px)}97%{transform:translate(128px,0)}98.5%{transform:translate(64px,0)}98.88%{transform:translate(64px,-16px)}}@keyframes s3{0%,99.63%{transform:translate(48px,-16px)}1.12%{transform:translate(0,-16px)}1.5%{transform:translate(0,0)}2.25%{transform:translate(32px,0)}4.49%{transform:translate(32px,96px)}9.74%{transform:translate(256px,96px)}10.49%{transform:translate(256px,64px)}17.23%{transform:translate(544px,64px)}17.98%{transform:translate(544px,96px)}18.73%{transform:translate(576px,96px)}19.48%{transform:translate(576px,64px)}20.6%{transform:translate(624px,64px)}20.97%{transform:translate(624px,80px)}21.72%{transform:translate(656px,80px)}22.85%{transform:translate(656px,32px)}23.6%{transform:translate(688px,32px)}23.97%{transform:translate(688px,48px)}25.09%{transform:translate(736px,48px)}25.84%{transform:translate(736px,16px)}26.22%{transform:translate(752px,16px)}26.59%{transform:translate(752px,32px)}27.34%{transform:translate(720px,32px)}28.84%{transform:translate(720px,96px)}29.21%{transform:translate(704px,96px)}30.71%{transform:translate(704px,32px)}33.33%{transform:translate(592px,32px)}34.08%,51.31%{transform:translate(592px,0)}34.46%,79.4%{transform:translate(608px,0)}34.83%{transform:translate(608px,-16px)}35.21%{transform:translate(592px,-16px)}35.96%,51.69%{transform:translate(592px,16px)}37.08%{transform:translate(544px,16px)}38.58%{transform:translate(544px,80px)}41.95%{transform:translate(688px,80px)}42.32%{transform:translate(688px,96px)}42.7%{transform:translate(672px,96px)}44.94%{transform:translate(672px,0)}45.32%{transform:translate(656px,0)}45.69%{transform:translate(656px,-16px)}47.57%{transform:translate(736px,-16px)}47.94%{transform:translate(736px,0)}59.55%,61.05%{transform:translate(256px,16px)}59.93%{transform:translate(256px,0)}60.3%{transform:translate(272px,0)}60.67%{transform:translate(272px,16px)}61.8%{transform:translate(256px,48px)}62.17%{transform:translate(240px,48px)}62.55%{transform:translate(240px,32px)}65.92%{transform:translate(96px,32px)}66.29%{transform:translate(96px,48px)}77.53%{transform:translate(576px,48px)}78.65%{transform:translate(576px,0)}79.78%{transform:translate(608px,16px)}81.65%{transform:translate(688px,16px)}82.77%{transform:translate(688px,64px)}94.38%{transform:translate(192px,64px)}94.76%{transform:translate(192px,48px)}95.88%{transform:translate(144px,48px)}96.63%{transform:translate(144px,16px)}97%{transform:translate(128px,16px)}97.38%{transform:translate(128px,0)}98.88%{transform:translate(64px,0)}99.25%{transform:translate(64px,-16px)}}:root{--cb:#1b1f230a;--cs:purple;--ce:#ebedf0;--c0:#ebedf0;--c1:#9be9a8;--c2:#40c463;--c3:#30a14e;--c4:#216e39}@media (prefers-color-scheme:dark){:root{--cb:#1b1f230a;--cs:purple;--ce:#161b22;--c1:#01311f;--c2:#034525;--c3:#0f6d31;--c4:#00c647}}.c{shape-rendering:geometricPrecision;rx:2;ry:2;fill:var(--ce);stroke-width:1px;stroke:var(--cb);animation:none 26700ms linear infinite}.c.c0{fill:var(--c1);animation-name:c0}.c.c1{fill:var(--c2);animation-name:c1}.c.c2,.c.c3,.c.c4{fill:var(--c2);animation-name:c2}.c.c3,.c.c4{animation-name:c3}.c.c4{animation-name:c4}.c.c5{fill:var(--c1);animation-name:c5}.c.c6{fill:var(--c4);animation-name:c6}.c.c7{fill:var(--c2);animation-name:c7}.c.c8{fill:var(--c3);animation-name:c8}.c.c9{fill:var(--c1);animation-name:c9}.c.ca{fill:var(--c3);animation-name:ca}.c.cb{fill:var(--c1);animation-name:cb}.c.cc,.c.cd,.c.ce{fill:var(--c1);animation-name:cc}.c.cd,.c.ce{animation-name:cd}.c.ce{animation-name:ce}.c.cf{fill:var(--c3);animation-name:cf}.c.cg{fill:var(--c1);animation-name:cg}.c.ch{fill:var(--c2);animation-name:ch}.c.ci{fill:var(--c3);animation-name:ci}.c.cj{fill:var(--c1);animation-name:cj}.c.ck{fill:var(--c2);animation-name:ck}.c.cl,.c.cm{fill:var(--c1);animation-name:cl}.c.cm{animation-name:cm}.c.cn{fill:var(--c4);animation-name:cn}.c.co,.c.cp{fill:var(--c2);animation-name:co}.c.cp{animation-name:cp}.c.cq{fill:var(--c1);animation-name:cq}.c.cr{fill:var(--c2);animation-name:cr}.c.cs,.c.ct{fill:var(--c1);animation-name:cs}.c.ct{animation-name:ct}.s,.u{animation:none linear 26700ms infinite}.u,.u.u0{transform-origin:0 0}.u{transform:scale(0,1)}.u.u0{fill:var(--c1);animation-name:u0}.u.u1{fill:var(--c2);animation-name:u1;transform-origin:395.7px 0}.u.u2{fill:var(--c3);animation-name:u2;transform-origin:678.4px 0}.u.u3{fill:var(--c4);animation-name:u3;transform-origin:791.5px 0}.s{shape-rendering:geometricPrecision;fill:var(--cs)}.s.s0{transform:translate(0,-16px);animation-name:s0}.s.s1{transform:translate(16px,-16px);animation-name:s1}.s.s2{transform:translate(32px,-16px);animation-name:s2}.s.s3{transform:translate(48px,-16px);animation-name:s3}</style><rect class="c" x="2" y="2" width="12" height="12"/><rect class="c" x="2" y="18" width="12" height="12"/><rect class="c" x="2" y="34" width="12" height="12"/><rect class="c" x="2" y="50" width="12" height="12"/><rect class="c" x="2" y="66" width="12" height="12"/><rect class="c" x="2" y="82" width="12" height="12"/><rect class="c" x="2" y="98" width="12" height="12"/><rect class="c" x="18" y="2" width="12" height="12"/><rect class="c" x="18" y="18" width="12" height="12"/><rect class="c" x="18" y="34" width="12" height="12"/><rect class="c" x="18" y="50" width="12" height="12"/><rect class="c" x="18" y="66" width="12" height="12"/><rect class="c" x="18" y="82" width="12" height="12"/><rect class="c" x="18" y="98" width="12" height="12"/><rect class="c" x="34" y="2" width="12" height="12"/><rect class="c" x="34" y="18" width="12" height="12"/><rect class="c" x="34" y="34" width="12" height="12"/><rect class="c" x="34" y="50" width="12" height="12"/><rect class="c" x="34" y="66" width="12" height="12"/><rect class="c" x="34" y="82" width="12" height="12"/><rect class="c c0" x="34" y="98" width="12" height="12"/><rect class="c" x="50" y="2" width="12" height="12"/><rect class="c" x="50" y="18" width="12" height="12"/><rect class="c" x="50" y="34" width="12" height="12"/><rect class="c" x="50" y="50" width="12" height="12"/><rect class="c" x="50" y="66" width="12" height="12"/><rect class="c" x="50" y="82" width="12" height="12"/><rect class="c" x="50" y="98" width="12" height="12"/><rect class="c" x="66" y="2" width="12" height="12"/><rect class="c" x="66" y="18" width="12" height="12"/><rect class="c" x="66" y="34" width="12" height="12"/><rect class="c" x="66" y="50" width="12" height="12"/><rect class="c" x="66" y="66" width="12" height="12"/><rect class="c" x="66" y="82" width="12" height="12"/><rect class="c" x="66" y="98" width="12" height="12"/><rect class="c" x="82" y="2" width="12" height="12"/><rect class="c" x="82" y="18" width="12" height="12"/><rect class="c" x="82" y="34" width="12" height="12"/><rect class="c" x="82" y="50" width="12" height="12"/><rect class="c" x="82" y="66" width="12" height="12"/><rect class="c" x="82" y="82" width="12" height="12"/><rect class="c" x="82" y="98" width="12" height="12"/><rect class="c" x="98" y="2" width="12" height="12"/><rect class="c" x="98" y="18" width="12" height="12"/><rect class="c c1" x="98" y="34" width="12" height="12"/><rect class="c" x="98" y="50" width="12" height="12"/><rect class="c" x="98" y="66" width="12" height="12"/><rect class="c" x="98" y="82" width="12" height="12"/><rect class="c" x="98" y="98" width="12" height="12"/><rect class="c" x="114" y="2" width="12" height="12"/><rect class="c" x="114" y="18" width="12" height="12"/><rect class="c" x="114" y="34" width="12" height="12"/><rect class="c" x="114" y="50" width="12" height="12"/><rect class="c" x="114" y="66" width="12" height="12"/><rect class="c" x="114" y="82" width="12" height="12"/><rect class="c" x="114" y="98" width="12" height="12"/><rect class="c" x="130" y="2" width="12" height="12"/><rect class="c" x="130" y="18" width="12" height="12"/><rect class="c" x="130" y="34" width="12" height="12"/><rect class="c" x="130" y="50" width="12" height="12"/><rect class="c" x="130" y="66" width="12" height="12"/><rect class="c" x="130" y="82" width="12" height="12"/><rect class="c" x="130" y="98" width="12" height="12"/><rect class="c" x="146" y="2" width="12" height="12"/><rect class="c" x="146" y="18" width="12" height="12"/><rect class="c" x="146" y="34" width="12" height="12"/><rect class="c" x="146" y="50" width="12" height="12"/><rect class="c" x="146" y="66" width="12" height="12"/><rect class="c" x="146" y="82" width="12" height="12"/><rect class="c" x="146" y="98" width="12" height="12"/><rect class="c" x="162" y="2" width="12" height="12"/><rect class="c" x="162" y="18" width="12" height="12"/><rect class="c" x="162" y="34" width="12" height="12"/><rect class="c" x="162" y="50" width="12" height="12"/><rect class="c" x="162" y="66" width="12" height="12"/><rect class="c" x="162" y="82" width="12" height="12"/><rect class="c" x="162" y="98" width="12" height="12"/><rect class="c" x="178" y="2" width="12" height="12"/><rect class="c" x="178" y="18" width="12" height="12"/><rect class="c" x="178" y="34" width="12" height="12"/><rect class="c" x="178" y="50" width="12" height="12"/><rect class="c" x="178" y="66" width="12" height="12"/><rect class="c" x="178" y="82" width="12" height="12"/><rect class="c" x="178" y="98" width="12" height="12"/><rect class="c" x="194" y="2" width="12" height="12"/><rect class="c" x="194" y="18" width="12" height="12"/><rect class="c" x="194" y="34" width="12" height="12"/><rect class="c" x="194" y="50" width="12" height="12"/><rect class="c" x="194" y="66" width="12" height="12"/><rect class="c" x="194" y="82" width="12" height="12"/><rect class="c" x="194" y="98" width="12" height="12"/><rect class="c" x="210" y="2" width="12" height="12"/><rect class="c" x="210" y="18" width="12" height="12"/><rect class="c" x="210" y="34" width="12" height="12"/><rect class="c" x="210" y="50" width="12" height="12"/><rect class="c" x="210" y="66" width="12" height="12"/><rect class="c" x="210" y="82" width="12" height="12"/><rect class="c" x="210" y="98" width="12" height="12"/><rect class="c" x="226" y="2" width="12" height="12"/><rect class="c" x="226" y="18" width="12" height="12"/><rect class="c" x="226" y="34" width="12" height="12"/><rect class="c" x="226" y="50" width="12" height="12"/><rect class="c" x="226" y="66" width="12" height="12"/><rect class="c" x="226" y="82" width="12" height="12"/><rect class="c" x="226" y="98" width="12" height="12"/><rect class="c" x="242" y="2" width="12" height="12"/><rect class="c" x="242" y="18" width="12" height="12"/><rect class="c" x="242" y="34" width="12" height="12"/><rect class="c" x="242" y="50" width="12" height="12"/><rect class="c" x="242" y="66" width="12" height="12"/><rect class="c" x="242" y="82" width="12" height="12"/><rect class="c" x="242" y="98" width="12" height="12"/><rect class="c c2" x="258" y="2" width="12" height="12"/><rect class="c c3" x="258" y="18" width="12" height="12"/><rect class="c" x="258" y="34" width="12" height="12"/><rect class="c c4" x="258" y="50" width="12" height="12"/><rect class="c c5" x="258" y="66" width="12" height="12"/><rect class="c" x="258" y="82" width="12" height="12"/><rect class="c" x="258" y="98" width="12" height="12"/><rect class="c" x="274" y="2" width="12" height="12"/><rect class="c" x="274" y="18" width="12" height="12"/><rect class="c" x="274" y="34" width="12" height="12"/><rect class="c" x="274" y="50" width="12" height="12"/><rect class="c" x="274" y="66" width="12" height="12"/><rect class="c" x="274" y="82" width="12" height="12"/><rect class="c" x="274" y="98" width="12" height="12"/><rect class="c" x="290" y="2" width="12" height="12"/><rect class="c" x="290" y="18" width="12" height="12"/><rect class="c" x="290" y="34" width="12" height="12"/><rect class="c" x="290" y="50" width="12" height="12"/><rect class="c" x="290" y="66" width="12" height="12"/><rect class="c" x="290" y="82" width="12" height="12"/><rect class="c" x="290" y="98" width="12" height="12"/><rect class="c" x="306" y="2" width="12" height="12"/><rect class="c" x="306" y="18" width="12" height="12"/><rect class="c" x="306" y="34" width="12" height="12"/><rect class="c" x="306" y="50" width="12" height="12"/><rect class="c" x="306" y="66" width="12" height="12"/><rect class="c" x="306" y="82" width="12" height="12"/><rect class="c" x="306" y="98" width="12" height="12"/><rect class="c" x="322" y="2" width="12" height="12"/><rect class="c" x="322" y="18" width="12" height="12"/><rect class="c" x="322" y="34" width="12" height="12"/><rect class="c" x="322" y="50" width="12" height="12"/><rect class="c" x="322" y="66" width="12" height="12"/><rect class="c" x="322" y="82" width="12" height="12"/><rect class="c" x="322" y="98" width="12" height="12"/><rect class="c" x="338" y="2" width="12" height="12"/><rect class="c" x="338" y="18" width="12" height="12"/><rect class="c" x="338" y="34" width="12" height="12"/><rect class="c" x="338" y="50" width="12" height="12"/><rect class="c" x="338" y="66" width="12" height="12"/><rect class="c" x="338" y="82" width="12" height="12"/><rect class="c" x="338" y="98" width="12" height="12"/><rect class="c" x="354" y="2" width="12" height="12"/><rect class="c" x="354" y="18" width="12" height="12"/><rect class="c" x="354" y="34" width="12" height="12"/><rect class="c" x="354" y="50" width="12" height="12"/><rect class="c" x="354" y="66" width="12" height="12"/><rect class="c" x="354" y="82" width="12" height="12"/><rect class="c" x="354" y="98" width="12" height="12"/><rect class="c" x="370" y="2" width="12" height="12"/><rect class="c" x="370" y="18" width="12" height="12"/><rect class="c" x="370" y="34" width="12" height="12"/><rect class="c" x="370" y="50" width="12" height="12"/><rect class="c" x="370" y="66" width="12" height="12"/><rect class="c" x="370" y="82" width="12" height="12"/><rect class="c" x="370" y="98" width="12" height="12"/><rect class="c" x="386" y="2" width="12" height="12"/><rect class="c" x="386" y="18" width="12" height="12"/><rect class="c" x="386" y="34" width="12" height="12"/><rect class="c" x="386" y="50" width="12" height="12"/><rect class="c" x="386" y="66" width="12" height="12"/><rect class="c" x="386" y="82" width="12" height="12"/><rect class="c" x="386" y="98" width="12" height="12"/><rect class="c" x="402" y="2" width="12" height="12"/><rect class="c" x="402" y="18" width="12" height="12"/><rect class="c" x="402" y="34" width="12" height="12"/><rect class="c" x="402" y="50" width="12" height="12"/><rect class="c" x="402" y="66" width="12" height="12"/><rect class="c" x="402" y="82" width="12" height="12"/><rect class="c" x="402" y="98" width="12" height="12"/><rect class="c" x="418" y="2" width="12" height="12"/><rect class="c" x="418" y="18" width="12" height="12"/><rect class="c" x="418" y="34" width="12" height="12"/><rect class="c" x="418" y="50" width="12" height="12"/><rect class="c" x="418" y="66" width="12" height="12"/><rect class="c" x="418" y="82" width="12" height="12"/><rect class="c" x="418" y="98" width="12" height="12"/><rect class="c" x="434" y="2" width="12" height="12"/><rect class="c" x="434" y="18" width="12" height="12"/><rect class="c" x="434" y="34" width="12" height="12"/><rect class="c" x="434" y="50" width="12" height="12"/><rect class="c" x="434" y="66" width="12" height="12"/><rect class="c" x="434" y="82" width="12" height="12"/><rect class="c" x="434" y="98" width="12" height="12"/><rect class="c" x="450" y="2" width="12" height="12"/><rect class="c" x="450" y="18" width="12" height="12"/><rect class="c" x="450" y="34" width="12" height="12"/><rect class="c" x="450" y="50" width="12" height="12"/><rect class="c" x="450" y="66" width="12" height="12"/><rect class="c" x="450" y="82" width="12" height="12"/><rect class="c" x="450" y="98" width="12" height="12"/><rect class="c" x="466" y="2" width="12" height="12"/><rect class="c" x="466" y="18" width="12" height="12"/><rect class="c" x="466" y="34" width="12" height="12"/><rect class="c" x="466" y="50" width="12" height="12"/><rect class="c" x="466" y="66" width="12" height="12"/><rect class="c" x="466" y="82" width="12" height="12"/><rect class="c" x="466" y="98" width="12" height="12"/><rect class="c" x="482" y="2" width="12" height="12"/><rect class="c" x="482" y="18" width="12" height="12"/><rect class="c" x="482" y="34" width="12" height="12"/><rect class="c" x="482" y="50" width="12" height="12"/><rect class="c" x="482" y="66" width="12" height="12"/><rect class="c" x="482" y="82" width="12" height="12"/><rect class="c" x="482" y="98" width="12" height="12"/><rect class="c" x="498" y="2" width="12" height="12"/><rect class="c" x="498" y="18" width="12" height="12"/><rect class="c" x="498" y="34" width="12" height="12"/><rect class="c" x="498" y="50" width="12" height="12"/><rect class="c" x="498" y="66" width="12" height="12"/><rect class="c" x="498" y="82" width="12" height="12"/><rect class="c" x="498" y="98" width="12" height="12"/><rect class="c" x="514" y="2" width="12" height="12"/><rect class="c" x="514" y="18" width="12" height="12"/><rect class="c" x="514" y="34" width="12" height="12"/><rect class="c" x="514" y="50" width="12" height="12"/><rect class="c" x="514" y="66" width="12" height="12"/><rect class="c" x="514" y="82" width="12" height="12"/><rect class="c" x="514" y="98" width="12" height="12"/><rect class="c" x="530" y="2" width="12" height="12"/><rect class="c" x="530" y="18" width="12" height="12"/><rect class="c" x="530" y="34" width="12" height="12"/><rect class="c" x="530" y="50" width="12" height="12"/><rect class="c" x="530" y="66" width="12" height="12"/><rect class="c" x="530" y="82" width="12" height="12"/><rect class="c" x="530" y="98" width="12" height="12"/><rect class="c" x="546" y="2" width="12" height="12"/><rect class="c" x="546" y="18" width="12" height="12"/><rect class="c" x="546" y="34" width="12" height="12"/><rect class="c" x="546" y="50" width="12" height="12"/><rect class="c" x="546" y="66" width="12" height="12"/><rect class="c" x="546" y="82" width="12" height="12"/><rect class="c" x="546" y="98" width="12" height="12"/><rect class="c" x="562" y="2" width="12" height="12"/><rect class="c" x="562" y="18" width="12" height="12"/><rect class="c" x="562" y="34" width="12" height="12"/><rect class="c" x="562" y="50" width="12" height="12"/><rect class="c c6" x="562" y="66" width="12" height="12"/><rect class="c c7" x="562" y="82" width="12" height="12"/><rect class="c" x="562" y="98" width="12" height="12"/><rect class="c c8" x="578" y="2" width="12" height="12"/><rect class="c c9" x="578" y="18" width="12" height="12"/><rect class="c" x="578" y="34" width="12" height="12"/><rect class="c ca" x="578" y="50" width="12" height="12"/><rect class="c cb" x="578" y="66" width="12" height="12"/><rect class="c" x="578" y="82" width="12" height="12"/><rect class="c cc" x="578" y="98" width="12" height="12"/><rect class="c cd" x="594" y="2" width="12" height="12"/><rect class="c ce" x="594" y="18" width="12" height="12"/><rect class="c" x="594" y="34" width="12" height="12"/><rect class="c" x="594" y="50" width="12" height="12"/><rect class="c" x="594" y="66" width="12" height="12"/><rect class="c" x="594" y="82" width="12" height="12"/><rect class="c" x="594" y="98" width="12" height="12"/><rect class="c" x="610" y="2" width="12" height="12"/><rect class="c cf" x="610" y="18" width="12" height="12"/><rect class="c" x="610" y="34" width="12" height="12"/><rect class="c" x="610" y="50" width="12" height="12"/><rect class="c" x="610" y="66" width="12" height="12"/><rect class="c" x="610" y="82" width="12" height="12"/><rect class="c" x="610" y="98" width="12" height="12"/><rect class="c" x="626" y="2" width="12" height="12"/><rect class="c" x="626" y="18" width="12" height="12"/><rect class="c" x="626" y="34" width="12" height="12"/><rect class="c" x="626" y="50" width="12" height="12"/><rect class="c" x="626" y="66" width="12" height="12"/><rect class="c cg" x="626" y="82" width="12" height="12"/><rect class="c" x="626" y="98" width="12" height="12"/><rect class="c" x="642" y="2" width="12" height="12"/><rect class="c" x="642" y="18" width="12" height="12"/><rect class="c" x="642" y="34" width="12" height="12"/><rect class="c" x="642" y="50" width="12" height="12"/><rect class="c" x="642" y="66" width="12" height="12"/><rect class="c" x="642" y="82" width="12" height="12"/><rect class="c" x="642" y="98" width="12" height="12"/><rect class="c ch" x="658" y="2" width="12" height="12"/><rect class="c ci" x="658" y="18" width="12" height="12"/><rect class="c" x="658" y="34" width="12" height="12"/><rect class="c" x="658" y="50" width="12" height="12"/><rect class="c" x="658" y="66" width="12" height="12"/><rect class="c cj" x="658" y="82" width="12" height="12"/><rect class="c" x="658" y="98" width="12" height="12"/><rect class="c" x="674" y="2" width="12" height="12"/><rect class="c" x="674" y="18" width="12" height="12"/><rect class="c" x="674" y="34" width="12" height="12"/><rect class="c ck" x="674" y="50" width="12" height="12"/><rect class="c" x="674" y="66" width="12" height="12"/><rect class="c" x="674" y="82" width="12" height="12"/><rect class="c" x="674" y="98" width="12" height="12"/><rect class="c" x="690" y="2" width="12" height="12"/><rect class="c" x="690" y="18" width="12" height="12"/><rect class="c cl" x="690" y="34" width="12" height="12"/><rect class="c cm" x="690" y="50" width="12" height="12"/><rect class="c cn" x="690" y="66" width="12" height="12"/><rect class="c co" x="690" y="82" width="12" height="12"/><rect class="c cp" x="690" y="98" width="12" height="12"/><rect class="c" x="706" y="2" width="12" height="12"/><rect class="c" x="706" y="18" width="12" height="12"/><rect class="c" x="706" y="34" width="12" height="12"/><rect class="c" x="706" y="50" width="12" height="12"/><rect class="c" x="706" y="66" width="12" height="12"/><rect class="c" x="706" y="82" width="12" height="12"/><rect class="c" x="706" y="98" width="12" height="12"/><rect class="c" x="722" y="2" width="12" height="12"/><rect class="c" x="722" y="18" width="12" height="12"/><rect class="c" x="722" y="34" width="12" height="12"/><rect class="c" x="722" y="50" width="12" height="12"/><rect class="c" x="722" y="66" width="12" height="12"/><rect class="c" x="722" y="82" width="12" height="12"/><rect class="c cq" x="722" y="98" width="12" height="12"/><rect class="c cr" x="738" y="2" width="12" height="12"/><rect class="c cs" x="738" y="18" width="12" height="12"/><rect class="c" x="738" y="34" width="12" height="12"/><rect class="c" x="738" y="50" width="12" height="12"/><rect class="c" x="738" y="66" width="12" height="12"/><rect class="c" x="738" y="82" width="12" height="12"/><rect class="c" x="738" y="98" width="12" height="12"/><rect class="c" x="754" y="2" width="12" height="12"/><rect class="c ct" x="754" y="18" width="12" height="12"/><rect class="c" x="754" y="34" width="12" height="12"/><rect class="c" x="754" y="50" width="12" height="12"/><rect class="c" x="754" y="66" width="12" height="12"/><rect class="c" x="754" y="82" width="12" height="12"/><rect class="c" x="754" y="98" width="12" height="12"/><rect class="c" x="770" y="2" width="12" height="12"/><rect class="c" x="770" y="18" width="12" height="12"/><rect class="c" x="770" y="34" width="12" height="12"/><rect class="c" x="770" y="50" width="12" height="12"/><rect class="c" x="770" y="66" width="12" height="12"/><rect class="c" x="770" y="82" width="12" height="12"/><rect class="c" x="770" y="98" width="12" height="12"/><rect class="c" x="786" y="2" width="12" height="12"/><rect class="c" x="786" y="18" width="12" height="12"/><rect class="c" x="786" y="34" width="12" height="12"/><rect class="c" x="786" y="50" width="12" height="12"/><rect class="c" x="786" y="66" width="12" height="12"/><rect class="c" x="786" y="82" width="12" height="12"/><rect class="c" x="786" y="98" width="12" height="12"/><rect class="c" x="802" y="2" width="12" height="12"/><rect class="c" x="802" y="18" width="12" height="12"/><rect class="c" x="802" y="34" width="12" height="12"/><rect class="c" x="802" y="50" width="12" height="12"/><rect class="c" x="802" y="66" width="12" height="12"/><rect class="c" x="802" y="82" width="12" height="12"/><rect class="c" x="802" y="98" width="12" height="12"/><rect class="c" x="818" y="2" width="12" height="12"/><rect class="c" x="818" y="18" width="12" height="12"/><rect class="c" x="818" y="34" width="12" height="12"/><rect class="c" x="818" y="50" width="12" height="12"/><rect class="c" x="818" y="66" width="12" height="12"/><rect class="c" x="818" y="82" width="12" height="12"/><rect class="c" x="818" y="98" width="12" height="12"/><rect class="c" x="834" y="2" width="12" height="12"/><rect class="u u0" height="12" width="396.3" x="0.0" y="144"/><rect class="u u1" height="12" width="283.3" x="395.7" y="144"/><rect class="u u2" height="12" width="113.7" x="678.4" y="144"/><rect class="u u3" height="12" width="57.1" x="791.5" y="144"/><rect class="s s0" x="0.8" y="0.8" width="14.4" height="14.4" rx="4.5" ry="4.5"/><rect class="s s1" x="1.8" y="1.8" width="12.3" height="12.3" rx="4.1" ry="4.1"/><rect class="s s2" x="2.6" y="2.6" width="10.8" height="10.8" rx="3.6" ry="3.6"/><rect class="s s3" x="3.0" y="3.0" width="9.9" height="9.9" rx="3.3" ry="3.3"/></svg>